{
    "asset" : {
        "generator" : "Khronos glTF Blender I/O v1.1.45",
        "version" : "2.0"
    },
    "scene" : 0,
    "scenes" : [
        {
            "name" : "Scene",
            "nodes" : [
                0
            ]
        }
    ],
    "nodes" : [
        {
            "mesh" : 0,
            "name" : "DemocratTree"
        }
    ],
    "materials" : [
        {
            "alphaMode" : "BLEND",
            "doubleSided" : true,
            "emissiveFactor" : [
                0,
                0,
                0
            ],
            "name" : "Material",
            "pbrMetallicRoughness" : {
                "baseColorTexture" : {
                    "index" : 0,
                    "texCoord" : 0
                },
                "metallicFactor" : 0,
                "roughnessFactor" : 0.4000000059604645
            }
        }
    ],
    "meshes" : [
        {
            "name" : "Cube",
            "primitives" : [
                {
                    "attributes" : {
                        "POSITION" : 0,
                        "NORMAL" : 1,
                        "TEXCOORD_0" : 2
                    },
                    "indices" : 3,
                    "material" : 0
                }
            ]
        }
    ],
    "textures" : [
        {
            "source" : 0
        }
    ],
    "images" : [
        {
            "bufferView" : 4,
            "mimeType" : "image/png",
            "name" : "DemocratTreeTexFinal.png"
        }
    ],
    "accessors" : [
        {
            "bufferView" : 0,
            "componentType" : 5126,
            "count" : 1770,
            "max" : [
                18.750179290771484,
                29.3175106048584,
                18.26263999938965
            ],
            "min" : [
                -19.987892150878906,
                -5.097970008850098,
                -17.396841049194336
            ],
            "type" : "VEC3"
        },
        {
            "bufferView" : 1,
            "componentType" : 5126,
            "count" : 1770,
            "type" : "VEC3"
        },
        {
            "bufferView" : 2,
            "componentType" : 5126,
            "count" : 1770,
            "type" : "VEC2"
        },
        {
            "bufferView" : 3,
            "componentType" : 5123,
            "count" : 2658,
            "type" : "SCALAR"
        }
    ],
    "bufferViews" : [
        {
            "buffer" : 0,
            "byteLength" : 21240,
            "byteOffset" : 0
        },
        {
            "buffer" : 0,
            "byteLength" : 21240,
            "byteOffset" : 21240
        },
        {
            "buffer" : 0,
            "byteLength" : 14160,
            "byteOffset" : 42480
        },
        {
            "buffer" : 0,
            "byteLength" : 5316,
            "byteOffset" : 56640
        },
        {
            "buffer" : 0,
            "byteLength" : 532414,
            "byteOffset" : 61956
        }
    ],
    "buffers" : [
        {
            "byteLength" : 594372,
            "uri" : "data:application/octet-stream;base64,"
        }
    ]
}
